<svg xmlns="http://www.w3.org/2000/svg"
     width="12"
     height="12"
     viewBox="0 0 12 12"
     fill="none">
  <path d="M11.0001 6.83341H6.83341V11.0001C6.83341 11.4584 6.45841 11.8334 6.00008 11.8334C5.54175 11.8334 5.16675 11.4584 5.16675 11.0001V6.83341H1.00008C0.541748 6.83341 0.166748 6.45841 0.166748 6.00008C0.166748 5.54175 0.541748 5.16675 1.00008 5.16675H5.16675V1.00008C5.16675 0.541748 5.54175 0.166748 6.00008 0.166748C6.45841 0.166748 6.83341 0.541748 6.83341 1.00008V5.16675H11.0001C11.4584 5.16675 11.8334 5.54175 11.8334 6.00008C11.8334 6.45841 11.4584 6.83341 11.0001 6.83341Z"
        fill="#6B6C6E" />
</svg>